# xmcd
#
# Track frame offsets: 
#        150
#        13725
#        27727
#        39465
#        50697
#        62187
#        77037
#        96125
#        106585
#        121202
#        137037
#        156422
#
# Disc length: 2368 seconds
#
# Revision: 4
# Processed by: cddbd v1.4PL0 Copyright (c) Steve Scherf et al.
# Submitted via: ExactAudioCopy v0.90b3
#
DISCID=9f093e0c
DTITLE=Merle Haggard - Big City
DYEAR=1900
DGENRE=Country
TTITLE0=Big City
TTITLE1=My Favorite Memory
TTITLE2=Good Old American Guest
TTITLE3=I Think I'm Gonna Live Forever
TTITLE4=This Song Is Mine
TTITLE5=Stop The World And Let Me Off
TTITLE6=Are The Good Times Really Over (I Wish A Buck Was Still Silver
TTITLE6=)
TTITLE7=Texas Fiddle Song
TTITLE8=You Don't Have Very Far To Go
TTITLE9=I Always Get Lucky With You
TTITLE10=Call Me
TTITLE11=I Won't Give Up My Train
EXTD=Epic/Legasy EK-65947  1999\nEpic FE-37593  1981
EXTT0=
EXTT1=
EXTT2=
EXTT3=
EXTT4=
EXTT5=
EXTT6=
EXTT7=
EXTT8=
EXTT9=
EXTT10=Bonus Track-Previously Unreleased
EXTT11=Bonus Track-Previously Unreleased
PLAYORDER=
